<?xml version="1.0" encoding="utf-8"?>
<!-- Generator: Adobe Illustrator 16.0.4, SVG Export Plug-In . SVG Version: 6.00 Build 0)  -->
<!DOCTYPE svg PUBLIC "-//W3C//DTD SVG 1.1//EN" "http://www.w3.org/Graphics/SVG/1.1/DTD/svg11.dtd">
<svg version="1.1" id="Layer_1" xmlns="http://www.w3.org/2000/svg" xmlns:xlink="http://www.w3.org/1999/xlink" x="0px" y="0px"
	 width="150px" height="150px" viewBox="0 0 150 150" enable-background="new 0 0 150 150" xml:space="preserve">
<path fill-rule="evenodd" clip-rule="evenodd" fill="#181616" d="M74.998,35.987C52.911,35.987,35,53.896,35,75.989
	c0,17.675,11.46,32.667,27.356,37.956c2,0.364,2.73-0.867,2.73-1.927c0-0.951-0.035-3.469-0.054-6.808
	c-11.127,2.417-13.475-5.362-13.475-5.362c-1.818-4.619-4.44-5.852-4.44-5.852c-3.632-2.479,0.274-2.432,0.274-2.432
	c4.014,0.283,6.127,4.125,6.127,4.125c3.568,6.111,9.362,4.346,11.642,3.325c0.363-2.586,1.397-4.352,2.539-5.349
	c-8.882-1.011-18.22-4.44-18.22-19.77c0-4.367,1.559-7.938,4.117-10.734c-0.411-1.012-1.784-5.079,0.392-10.586
	c0,0,3.358-1.076,11,4.1c3.19-0.887,6.612-1.331,10.014-1.346c3.398,0.016,6.818,0.459,10.015,1.346
	c7.637-5.176,10.99-4.1,10.99-4.1c2.182,5.507,0.808,9.574,0.396,10.586c2.562,2.796,4.111,6.367,4.111,10.734
	c0,15.369-9.354,18.749-18.264,19.736c1.438,1.237,2.715,3.68,2.715,7.411c0,5.347-0.048,9.659-0.048,10.975
	c0,1.067,0.719,2.31,2.75,1.922C103.552,108.641,115,93.659,115,75.989C115,53.896,97.091,35.987,74.998,35.987z"/>
</svg>
