<?xml version="1.0" encoding="utf-8"?>
<!-- Generator: Adobe Illustrator 16.0.4, SVG Export Plug-In . SVG Version: 6.00 Build 0)  -->
<!DOCTYPE svg PUBLIC "-//W3C//DTD SVG 1.1//EN" "http://www.w3.org/Graphics/SVG/1.1/DTD/svg11.dtd">
<svg version="1.1" id="Layer_1" xmlns="http://www.w3.org/2000/svg" xmlns:xlink="http://www.w3.org/1999/xlink" x="0px" y="0px"
	 width="150px" height="150px" viewBox="0 0 150 150" enable-background="new 0 0 150 150" xml:space="preserve">
<g id="l8luqS.tif">
	<g>
		<path d="M120.239,124.917c-30.159,0-60.317,0-90.475,0c-3.617-2.11-4.784-5.192-4.76-9.403
			c0.157-27.012,0.161-54.024-0.004-81.035c-0.026-4.226,1.162-7.282,4.764-9.396c30.158,0,60.315,0,90.475,0
			c3.6,2.119,4.785,5.19,4.76,9.405c-0.158,27.008-0.158,54.017,0,81.024C125.024,119.728,123.839,122.798,120.239,124.917z
			 M78.901,110.021c0-7.186-0.127-14.036,0.057-20.88c0.086-3.205,0.37-6.515,1.284-9.56c1.208-4.025,5.15-6.009,9.29-5.302
			c4.129,0.705,5.432,3.771,5.561,7.366c0.218,6.094,0.149,12.197,0.185,18.297c0.019,3.317,0.003,6.636,0.003,9.838
			c5.271,0,9.988,0,14.819,0c0-8.102,0.089-15.889-0.035-23.672c-0.07-4.396-0.132-8.844-0.841-13.163
			c-1.045-6.371-4.862-10.302-11.456-11.542c-7.706-1.448-13.984,0.877-19.488,7.123c-0.117-2.345-0.202-4.063-0.286-5.729
			c-4.784,0-9.249,0-13.607,0c0,15.903,0,31.527,0,47.224C69.221,110.021,73.752,110.021,78.901,110.021z M54.451,109.921
			c0-15.94,0-31.563,0-47.085c-4.995,0-9.713,0-14.345,0c0,15.847,0,31.379,0,47.085C44.931,109.921,49.554,109.921,54.451,109.921z
			 M47.301,56.278c4.838-0.014,8.956-4.064,8.977-8.832c0.022-4.921-4.276-9.188-9.166-9.1c-4.731,0.087-8.785,4.292-8.764,9.089
			C38.37,52.231,42.48,56.29,47.301,56.278z"/>
	</g>
</g>
</svg>
