<?xml version="1.0" encoding="utf-8"?>
<!-- Generator: Adobe Illustrator 16.0.4, SVG Export Plug-In . SVG Version: 6.00 Build 0)  -->
<!DOCTYPE svg PUBLIC "-//W3C//DTD SVG 1.1//EN" "http://www.w3.org/Graphics/SVG/1.1/DTD/svg11.dtd">
<svg version="1.1" id="Layer_1" xmlns="http://www.w3.org/2000/svg" xmlns:xlink="http://www.w3.org/1999/xlink" x="0px" y="0px"
	 width="150px" height="150px" viewBox="0 0 150 150" enable-background="new 0 0 150 150" xml:space="preserve">
<g id="Icons_with_numbers">
	<g id="Group" transform="translate(-336.000000, 0.000000)">
		<path id="Shape" d="M423.374,78.46l35.352,30.301c-1.283,1.207-3.013,1.953-4.917,1.953h-85.617c-1.912,0-3.648-0.739-4.932-1.938
			l35.365-30.315L411,89.286L423.374,78.46z M411,82.143l-47.726-40.903c1.284-1.207,3.014-1.953,4.918-1.953h85.617
			c1.911,0,3.647,0.739,4.932,1.939L411,82.143z M461,104.896l-34.515-29.331L461,45.536V104.896L461,104.896z M361,104.896v-59.34
			l34.515,30.009L361,104.896L361,104.896z"/>
	</g>
</g>
</svg>
